<svg viewBox="0 0 1574 1179.66" xmlns="http://www.w3.org/2000/svg" xmlns:xlink="http://www.w3.org/1999/xlink" id="b" overflow="hidden"><defs><clipPath id="c"><rect x="8.75" y="611.95" width="456.25" height="426.33" fill="none"/></clipPath></defs><path d="M1367.62 1036.03C1430.7 932.72 1467.06 811.32 1467.06 681.43 1467.06 305.09 1161.97 0 785.63 0 409.29 0 104.2 305.09 104.2 681.43 104.2 811.33 140.56 932.73 203.64 1036.03L1367.62 1036.03Z" fill="#F4F5FC"/><path d="M369.34 557C365.72 534.58 346.28 517.46 322.84 517.46 318.91 517.46 315.1 517.95 311.45 518.86 301.84 496.03 279.26 480 252.93 480 217.87 480 189.46 508.42 189.46 543.47 189.46 548.11 189.97 552.64 190.92 557L369.34 557Z" fill="#FFFFFF"/><g><path d="M960 601 1137.15 601 1137.15 579 1123 579 1123 561 1173 561 1173 579 1160 579 1160 601 1212.26 601 1212.26 581 1233 581 1233 775 1293.77 775 1296 1033 960 1036 960 601Z" fill="#E1E1F9"/><rect x="1040" y="675" width="33" height="85" fill="#FFFFFF"/><rect x="1107" y="675" width="33" height="85" fill="#FFFFFF"/><rect x="1040" y="815" width="33" height="85" fill="#FFFFFF"/><rect x="1107" y="815" width="33" height="85" fill="#FFFFFF"/><rect x="1175" y="815" width="33" height="85" fill="#FFFFFF"/></g><path d="M1275.81 356C1267.54 304.8 1223.16 265.7 1169.62 265.7 1160.64 265.7 1151.93 266.82 1143.6 268.89 1121.64 216.76 1070.07 180.15 1009.95 180.15 929.89 180.15 864.99 245.05 864.99 325.11 864.99 335.72 866.16 346.04 868.32 356L1275.8 356Z" fill="#FFFFFF"/><g><path d="M1068.56 961.27 1063.65 961.27 1050.99 961.27 1045.53 653.62 1045.53 650.28 1063.45 650.28 1063.45 628.24 1076.8 628.24 1076.8 613.62 1063.45 613.62 1063.45 585.04 1072.97 585.04 1072.97 570.42 1063.45 570.42 1063.45 526.24 1067.47 526.24 1067.47 534.5 1089.52 534.5 1089.52 510.36 1089.52 503.14 1108.94 511.01 1122.57 492.36 778.6 347.75 436.38 489.33 450.52 508.49 466.79 502 466.79 502.4 466.79 524.23 466.79 534.44 488.78 534.44 488.78 526.18 509.96 526.19 492.08 524.29 490.19 570.42 481.72 570.42 481.72 585.04 490.19 585.04 490.19 613.62 481.72 613.62 481.72 628.24 493.97 628.24 493.97 650.28 512.87 650.28 512.87 655.95 507.44 961.27 498.59 961.27 492.55 961.27 432.37 961.27 432.37 973.03 438.41 973.03 438.41 1041.94 462.16 1041.94 492.55 1041.94 1068.56 1041.94 1103.81 1041.94 1122.57 1041.94 1122.57 973.03 1129.87 973.03 1129.87 961.27 1068.56 961.27Z" fill="#FFFFFF"/><rect x="457.93" y="439.14" width="338.72" height="10.89" fill="#6F98C5" transform="matrix(0.930801 -0.365527 0.365527 0.930801 -119.11 260.09)"/><rect x="927.04" y="276.68" width="10.89" height="338.72" fill="#6F98C5" transform="matrix(0.365527 -0.930801 0.930801 0.365527 176.43 1150.92)"/><rect x="492.36" y="585.04" width="208.15" height="10.12" fill="#C9C4EA"/><rect x="855.14" y="585.04" width="208.15" height="10.12" fill="#C9C4EA"/><rect x="569.03" y="628.24" width="22.08" height="9.5" fill="#C9C4EA"/><rect x="967.68" y="628.24" width="22.08" height="9.5" fill="#C9C4EA"/><rect x="707.45" y="663.3" width="66.86" height="100.47" fill="#B2D1F9"/><rect x="787.06" y="663.3" width="66.86" height="100.47" fill="#B2D1F9"/><rect x="551.92" y="672.1" width="59.4" height="91.67" fill="#D3D5F9"/><rect x="555.6" y="816.69" width="52.07" height="89.64" fill="#D3D5F9"/><rect x="949.03" y="672.1" width="59.4" height="91.67" fill="#D3D5F9"/><rect x="952.71" y="816.69" width="52.07" height="89.64" fill="#D3D5F9"/><rect x="711.23" y="796.63" width="140.22" height="176.4" fill="#F1F0F9"/><rect x="514.3" y="647.42" width="36.92" height="9.68" fill="#C9C4EA"/><rect x="611.77" y="647.42" width="36.92" height="9.68" fill="#C9C4EA"/><rect x="910.41" y="647.42" width="36.92" height="9.68" fill="#C9C4EA"/><rect x="1009.47" y="647.42" width="36.92" height="9.68" fill="#C9C4EA"/><rect x="551.92" y="672.1" width="59.85" height="10.52" fill="#C9C4EA"/><rect x="553.48" y="816.69" width="56.72" height="10.52" fill="#C9C4EA"/><rect x="950.22" y="672.1" width="59.85" height="10.52" fill="#C9C4EA"/><rect x="950.22" y="816.69" width="56.79" height="10.52" fill="#C9C4EA"/><rect x="667.09" y="632.99" width="225.44" height="84.94" fill="#C9C4EA"/><rect x="648.69" y="652.26" width="261.59" height="65.68" fill="#EDEBF9"/><rect x="667.09" y="628.24" width="225.44" height="9.5" fill="#D3D5F9"/><rect x="714.01" y="794.76" width="139.37" height="12.85" fill="#B2D1F9"/><rect x="840.8" y="794.76" width="10.65" height="178.27" fill="#B2D1F9"/><rect x="711.23" y="794.76" width="10.65" height="178.27" fill="#B2D1F9"/><rect x="438.41" y="973.03" width="56.9" height="8.8" fill="#C9C4EA"/><rect x="1069.71" y="974.08" width="52.87" height="9.78" fill="#C9C4EA"/><path d="M711.44 891.32 808.47 794.29 794.07 794.29 711.44 876.92 711.44 891.32Z" fill="#B2D1F9"/><path d="M711.44 968.98 711.44 970.68 724.14 970.68 852.99 841.83 852.99 827.43 711.44 968.98Z" fill="#B2D1F9"/><path d="M711.44 938.29 711.44 952.69 852.99 811.15 852.99 796.75 711.44 938.29Z" fill="#B2D1F9"/><path d="M711.44 922.01 839.16 794.29 824.76 794.29 711.44 907.61 711.44 922.01Z" fill="#B2D1F9"/><path d="M711.44 860.64 777.79 794.29 763.39 794.29 711.44 846.24 711.44 860.64Z" fill="#B2D1F9"/><path d="M711.44 829.96 747.11 794.29 732.71 794.29 711.44 815.56 711.44 829.96Z" fill="#B2D1F9"/><path d="M711.44 794.29 711.44 799.27 716.42 794.29 711.44 794.29Z" fill="#6F98C5"/><path d="M754.83 970.68 852.99 872.52 852.99 858.12 740.43 970.68 754.83 970.68Z" fill="#B2D1F9"/><path d="M846.88 970.68 852.99 964.57 852.99 950.17 832.48 970.68 846.88 970.68Z" fill="#B2D1F9"/><path d="M785.51 970.68 852.99 903.2 852.99 888.8 771.11 970.68 785.51 970.68Z" fill="#B2D1F9"/><path d="M816.19 970.68 852.99 933.89 852.99 919.49 801.79 970.68 816.19 970.68Z" fill="#B2D1F9"/><g><rect x="487.64" y="585.04" width="5.08" height="28.59" fill="#2B2A3F"/><rect x="1062.25" y="585.04" width="5.08" height="28.59" fill="#2B2A3F"/><path d="M1067.33 570.42 1062.25 570.42 1062.25 528.73 492.73 528.73 492.73 570.42 487.64 570.42 487.64 523.65 1067.33 523.65 1067.33 570.42Z" fill="#2B2A3F"/><path d="M1093.4 513.55 465.59 513.55 465.59 500.28 780.46 374.64 781.41 375.02 1093.41 501.42 1093.41 513.54ZM470.67 508.47 1088.32 508.47 1088.32 504.85 780.44 380.12 470.67 503.72 470.67 508.46Z" fill="#2B2A3F"/><path d="M1111.16 514.11 1109.32 513.37 780.44 380.13 450.98 511.59 433.74 488.23 779.94 345.01 780.92 345.42 1127.86 491.27 1111.16 514.11ZM780.45 374.64 781.4 375.02 1109.4 507.9 1119.96 493.45 779.93 350.5 441.69 490.43 452.74 505.4 780.45 374.64Z" fill="#2B2A3F"/><path d="M1072.43 1042.24 491.34 1042.24 491.34 970.49 1072.43 970.49 1072.43 1042.24ZM496.43 1037.16 1067.36 1037.16 1067.36 975.57 496.43 975.57 496.43 1037.16Z" fill="#2B2A3F"/><path d="M713.77 974.36 692.71 974.36 692.71 779.63 870.02 779.63 870.02 799.17 869.89 799.17 869.89 974.11 849 974.11 849 799.17 713.78 799.17 713.78 974.36ZM697.79 969.28 708.69 969.28 708.69 794.09 854.07 794.09 854.07 969.03 864.8 969.03 864.8 794.09 864.93 794.09 864.93 784.71 697.78 784.71 697.78 969.28Z" fill="#2B2A3F"/><path d="M1072.43 997.23 491.34 997.23 491.34 970.49 1072.43 970.49 1072.43 997.23ZM496.43 992.15 1067.36 992.15 1067.36 975.57 496.43 975.57 496.43 992.15Z" fill="#2B2A3F"/><path d="M1072.43 1020.85 491.34 1020.85 491.34 992.14 1072.43 992.14 1072.43 1020.85ZM496.43 1015.77 1067.36 1015.77 1067.36 997.23 496.43 997.23 496.43 1015.77Z" fill="#2B2A3F"/><path d="M1072.43 1042.24 491.34 1042.24 491.34 1015.78 1072.43 1015.78 1072.43 1042.24ZM496.43 1037.16 1067.36 1037.16 1067.36 1020.86 496.43 1020.86 496.43 1037.16Z" fill="#2B2A3F"/><path d="M1093.4 537.04 1066.27 537.04C1066.27 537.04 1066.27 528.78 1066.27 528.78L1050.17 528.78C1050.17 528.78 1050.17 537.04 1050.17 537.04L1023.38 537.04C1023.38 537.04 1023.38 528.78 1023.38 528.78L1007.28 528.78C1007.28 528.78 1007.28 537.04 1007.28 537.04L980.49 537.04C980.49 537.04 980.49 528.78 980.49 528.78L964.39 528.78C964.39 528.78 964.39 537.04 964.39 537.04L937.6 537.04C937.6 537.04 937.6 528.78 937.6 528.78L921.5 528.78C921.5 528.78 921.5 537.04 921.5 537.04L894.71 537.04C894.71 537.04 894.71 528.78 894.71 528.78L878.61 528.78C878.61 528.78 878.61 537.04 878.61 537.04L851.82 537.04C851.82 537.04 851.82 528.78 851.82 528.78L835.72 528.78C835.72 528.78 835.72 537.04 835.72 537.04L808.93 537.04C808.93 537.04 808.93 528.78 808.93 528.78L792.83 528.78C792.83 528.78 792.83 537.04 792.83 537.04L766.04 537.04C766.04 537.04 766.04 528.78 766.04 528.78L749.94 528.78C749.94 528.78 749.94 537.04 749.94 537.04L723.15 537.04C723.15 537.04 723.15 528.78 723.15 528.78L707.05 528.78C707.05 528.78 707.05 537.04 707.05 537.04L680.26 537.04C680.26 537.04 680.26 528.78 680.26 528.78L664.16 528.78C664.16 528.78 664.16 537.04 664.16 537.04L637.37 537.04C637.37 537.04 637.37 528.78 637.37 528.78L621.27 528.78C621.27 528.78 621.27 537.04 621.27 537.04L594.48 537.04C594.48 537.04 594.48 528.78 594.48 528.78L578.38 528.78C578.38 528.78 578.38 537.04 578.38 537.04L551.59 537.04C551.59 537.04 551.59 528.78 551.59 528.78L535.49 528.78C535.49 528.78 535.49 537.04 535.49 537.04L508.7 537.04C508.7 537.04 508.7 528.78 508.7 528.78L492.6 528.78C492.6 528.78 492.6 537.04 492.6 537.04L465.53 537.04C465.53 537.04 465.53 507.82 465.53 507.82L1093.34 507.88 1093.34 537.1ZM1071.35 531.96 1088.32 531.96C1088.32 531.96 1088.32 512.9 1088.32 512.9L470.67 512.84 470.67 531.9C470.67 531.9 487.57 531.9 487.57 531.9L487.57 523.64C487.57 523.64 513.83 523.64 513.83 523.64L513.83 531.9C513.83 531.9 530.45 531.9 530.45 531.9L530.45 523.64C530.45 523.64 556.71 523.64 556.71 523.64L556.71 531.9C556.71 531.9 573.33 531.9 573.33 531.9L573.33 523.64C573.33 523.64 599.59 523.64 599.59 523.64L599.59 531.9C599.59 531.9 616.21 531.9 616.21 531.9L616.21 523.64C616.21 523.64 642.47 523.64 642.47 523.64L642.47 531.9C642.47 531.9 659.1 531.9 659.1 531.9L659.1 523.64C659.1 523.64 685.36 523.64 685.36 523.64L685.36 531.9C685.36 531.9 701.98 531.9 701.98 531.9L701.98 523.64C701.98 523.64 728.24 523.64 728.24 523.64L728.24 531.9C728.24 531.9 744.86 531.9 744.86 531.9L744.86 523.64C744.86 523.64 771.12 523.64 771.12 523.64L771.12 531.9C771.12 531.9 787.74 531.9 787.74 531.9L787.74 523.64C787.74 523.64 814 523.64 814 523.64L814 531.9C814 531.9 830.63 531.9 830.63 531.9L830.63 523.64C830.63 523.64 856.89 523.64 856.89 523.64L856.89 531.9C856.89 531.9 873.52 531.9 873.52 531.9L873.52 523.64C873.52 523.64 899.78 523.64 899.78 523.64L899.78 531.9C899.78 531.9 916.4 531.9 916.4 531.9L916.4 523.64C916.4 523.64 942.66 523.64 942.66 523.64L942.66 531.9C942.66 531.9 959.28 531.9 959.28 531.9L959.28 523.64C959.28 523.64 985.54 523.64 985.54 523.64L985.54 531.9C985.54 531.9 1002.16 531.9 1002.16 531.9L1002.16 523.64C1002.16 523.64 1028.42 523.64 1028.42 523.64L1028.42 531.9C1028.42 531.9 1045.05 531.9 1045.05 531.9L1045.05 523.64C1045.05 523.64 1071.31 523.64 1071.31 523.64L1071.31 531.9Z" fill="#2B2A3F"/><path d="M703.06 587.58 479.18 587.58 479.18 567.88 703.06 567.88 703.06 587.58ZM484.26 582.5 697.98 582.5 697.98 572.96 484.26 572.96 484.26 582.5Z" fill="#2B2A3F"/><path d="M1075.51 630.78 479.18 630.78 479.18 611.08 1075.52 611.08 1075.52 630.78ZM484.26 625.7 1070.44 625.7 1070.44 616.16 484.26 616.16 484.26 625.7Z" fill="#2B2A3F"/><path d="M1075.51 587.58 852.59 587.58 852.59 567.88 1075.51 567.88 1075.51 587.58ZM857.68 582.5 1070.43 582.5 1070.43 572.96 857.68 572.96 857.68 582.5Z" fill="#2B2A3F"/><path d="M776.85 766.31 704.91 766.31 704.91 660.76 776.85 660.76 776.85 766.31ZM709.99 761.23 771.77 761.23 771.77 665.84 709.99 665.84 709.99 761.23Z" fill="#2B2A3F"/><path d="M869.21 766.31 692.7 766.31 692.7 647.74 869.21 647.74 869.21 766.31ZM697.79 761.23 864.13 761.23 864.13 652.83 697.79 652.83 697.79 761.23Z" fill="#2B2A3F"/><path d="M855.91 766.31 785.06 766.31 785.06 660.76 855.91 660.76 855.91 766.31ZM790.15 761.23 850.84 761.23 850.84 665.84 790.15 665.84 790.15 761.23Z" fill="#2B2A3F"/><path d="M1126.45 1042.24 1067.35 1042.24 1067.35 970.49 1126.45 970.49 1126.45 1042.24ZM1072.43 1037.16 1121.36 1037.16 1121.36 975.57 1072.43 975.57 1072.43 1037.16Z" fill="#2B2A3F"/><path d="M496.43 1042.24 437.21 1042.24 437.21 970.49 496.43 970.49 496.43 1042.24ZM442.29 1037.16 491.34 1037.16 491.34 975.57 442.29 975.57 442.29 1037.16Z" fill="#2B2A3F"/><path d="M956.56 963.81 903.25 963.81 908.95 652.66 890 652.66 890 625.69 968.8 625.69 968.8 652.66 950.86 652.66 956.56 963.81ZM908.42 958.73 951.38 958.73 945.68 647.58 963.71 647.58 963.71 630.77 895.07 630.77 895.07 647.58 914.11 647.58 908.41 958.73Z" fill="#2B2A3F"/><path d="M973.9 975.57 888.57 975.57 888.57 958.74 973.9 958.74 973.9 975.57ZM893.65 970.49 968.82 970.49 968.82 963.82 893.65 963.82 893.65 970.49Z" fill="#2B2A3F"/><path d="M1055.09 963.81 1001.78 963.81 1007.48 652.66 988.53 652.66 988.53 625.69 1067.33 625.69 1067.33 652.66 1049.39 652.66 1055.09 963.81ZM1006.95 958.73 1049.91 958.73 1044.21 647.58 1062.24 647.58 1062.24 630.77 993.6 630.77 993.6 647.58 1012.64 647.58 1006.94 958.73Z" fill="#2B2A3F"/><path d="M1072.43 975.57 987.1 975.57 987.1 958.74 1072.43 958.74 1072.43 975.57ZM992.18 970.49 1067.35 970.49 1067.35 963.82 992.18 963.82 992.18 970.49Z" fill="#2B2A3F"/><path d="M657.39 963.81 604.08 963.81 609.78 652.66 590.83 652.66 590.83 625.69 669.63 625.69 669.63 652.66 651.69 652.66 657.39 963.81ZM609.25 958.73 652.21 958.73 646.51 647.58 664.54 647.58 664.54 630.77 595.9 630.77 595.9 647.58 614.94 647.58 609.24 958.73Z" fill="#2B2A3F"/><path d="M674.74 975.57 589.41 975.57 589.41 958.74 674.74 958.74 674.74 975.57ZM594.49 970.49 669.66 970.49 669.66 963.82 594.49 963.82 594.49 970.49Z" fill="#2B2A3F"/><path d="M559.33 963.81 506.02 963.81 511.72 652.66 492.77 652.66 492.77 625.69 571.57 625.69 571.57 652.66 553.63 652.66 559.33 963.81ZM511.19 958.73 554.15 958.73 548.45 647.58 566.48 647.58 566.48 630.77 497.84 630.77 497.84 647.58 516.88 647.58 511.18 958.73Z" fill="#2B2A3F"/><path d="M576.68 975.57 497.39 975.57 497.39 958.74 576.68 958.74 576.68 975.57ZM502.47 970.49 571.6 970.49 571.6 963.82 502.47 963.82 502.47 970.49Z" fill="#2B2A3F"/><path d="M1133.74 975.57 1067.35 975.57 1067.35 958.74 1133.74 958.74 1133.74 975.57ZM1072.43 970.49 1128.66 970.49 1128.66 963.82 1072.43 963.82 1072.43 970.49Z" fill="#2B2A3F"/><path d="M502.47 975.57 431.17 975.57 431.17 958.74 502.47 958.74 502.47 975.57ZM436.25 970.49 497.38 970.49 497.38 963.82 436.25 963.82 436.25 970.49Z" fill="#2B2A3F"/><path d="M750.79 570.54C750.79 572.74 749.72 574.87 747.07 576.05 750.42 577.07 751.65 580.62 751.65 582.42 751.65 588.79 746.87 590.83 740.95 590.83L727.39 590.83 727.39 562.24 740.95 562.24C746.59 562.24 750.8 564.77 750.8 570.53ZM732.69 573.72 740.94 573.72C744.33 573.72 745.43 572.29 745.43 570.65 745.43 569.34 744.37 567.14 740.94 567.14L732.69 567.14 732.69 573.72ZM732.69 585.81 740.94 585.81C743.15 585.81 746.29 585.08 746.29 582.38 746.29 579.68 743.15 578.46 740.94 578.46L732.69 578.46 732.69 585.81Z" fill="#2B2A3F"/><path d="M775.76 585.44 760.81 585.44 758.36 590.83 752.52 590.83 765.35 562.24 771.23 562.24 784.05 590.83 778.17 590.83 775.76 585.44ZM768.29 568.24 762.98 580.41 773.6 580.41 768.29 568.24Z" fill="#2B2A3F"/><path d="M805.31 562.2 810.7 562.2 810.7 590.83 807.35 590.83C807.35 590.83 792.32 571.55 792.32 571.55L792.32 590.83 786.93 590.83 786.93 562.24 791.3 562.24 805.31 579.97 805.31 562.2Z" fill="#2B2A3F"/><path d="M837.05 562.41 824.35 576.09 838.12 590.51 838.12 590.84 831.46 590.84 819.49 578.18 819.49 590.84 814.1 590.84 814.1 562.25 819.49 562.25 819.49 574.34 830.36 562.25 837.06 562.25 837.06 562.41Z" fill="#2B2A3F"/><rect x="551.92" y="669.56" width="59.4" height="5.08" fill="#2B2A3F"/><rect x="950.45" y="669.56" width="59.4" height="5.08" fill="#2B2A3F"/><rect x="551.92" y="761.23" width="59.4" height="5.08" fill="#2B2A3F"/><rect x="551.92" y="814.15" width="59.4" height="5.08" fill="#2B2A3F"/><rect x="555.6" y="905.81" width="52.03" height="5.08" fill="#2B2A3F"/><rect x="950.45" y="814.15" width="56.56" height="5.08" fill="#2B2A3F"/><rect x="950.45" y="905.81" width="53.57" height="5.08" fill="#2B2A3F"/><rect x="950.45" y="761.23" width="59.4" height="5.08" fill="#2B2A3F"/><rect x="779.35" y="796.63" width="5.08" height="175.19" fill="#2B2A3F"/></g><rect x="709.41" y="554.15" width="133.33" height="50.84" fill="#FFFFFF"/></g><g clip-path="url(#c)"><g><path d="M289.38 676.44C290.68 659.71 298.3 644.1 310.57 632.58 322.84 621.24 339 614.74 355.92 614.74 372.84 614.74 388.81 621.06 401.27 632.4 413.72 643.74 421.34 659.35 422.64 676.07 431.56 679.6 439.55 685.18 446.06 692.05 452.56 698.93 457.58 707.29 460.74 716.21 463.9 725.32 465.01 734.79 464.09 744.27 463.16 753.75 460.19 763.04 455.36 771.22 450.53 779.58 444.02 786.65 436.22 792.22 428.41 797.8 419.49 801.51 410.2 803.37 400.91 805.23 391.24 805.04 381.95 802.81 372.66 800.58 363.92 796.31 356.49 790.54 349.06 796.3 340.32 800.58 331.03 802.81 321.74 805.04 312.07 805.23 302.78 803.55 293.49 801.87 284.57 797.97 276.76 792.59 268.95 787.01 262.45 779.95 257.62 771.78 252.79 763.6 249.81 754.5 248.89 745.02 247.96 735.54 248.89 726.06 251.86 716.96 254.83 707.85 259.85 699.68 266.17 692.61 272.67 685.73 280.67 680.16 289.4 676.44Z" fill="#94B4F8"/><path d="M294.58 702.83C284.92 710.64 283.24 725.69 290.86 736.28L325.98 708.03C318.36 697.25 304.24 695.02 294.57 702.83ZM177.13 1034 224.33 1034 217.64 1015.42 183.82 1015.42 177.13 1034Z" fill="#EBEBEB"/><path d="M190.51 1015.42 211.32 1015.42 211.32 885.7 190.51 885.7 190.51 1015.42Z" fill="#EBEBEB"/><path d="M177.13 1034 224.33 1034 217.64 1015.42 183.82 1015.42 177.13 1034Z" fill="#EBEBEB"/><path d="M337.14 885.7 325.62 885.7 325.62 1015.42 337.14 1015.42 337.14 885.7ZM213.37 885.7 201.85 885.7 201.85 1015.42 213.37 1015.42 213.37 885.7ZM329.52 1034.93 347.36 1034.93 343.27 1015.6 326.17 1015.6 329.52 1034.93 329.52 1034.93ZM205.93 1034.93 223.77 1034.93 219.68 1015.6 202.58 1015.6C202.58 1015.6 205.93 1034.93 205.93 1034.93ZM70.83 1019.32 33.66 1019.32 33.66 996.83C33.66 994.6 36.08 992.93 39.05 992.93L65.25 992.93C68.22 992.93 70.64 994.6 70.64 996.83L70.64 1019.32 70.83 1019.32ZM77.52 683.5 24.92 683.5 24.92 693.35 77.51 693.35 77.51 683.5Z" fill="#94B4F8"/><path d="M357.21 763.23 351.45 763.23 351.45 1033.82 357.21 1033.82 357.21 763.23Z" fill="#1B1E3F"/><path d="M310.38 773.64 306.11 777.36 352.2 830.33 356.47 826.61 310.38 773.64ZM378.21 834.78 352.38 857.27 356.1 861.54 381.93 839.05 378.21 834.78 378.21 834.78Z" fill="#1B1E3F"/><path d="M395.31 807.65C380.44 807.65 366.13 803 354.24 794.27 342.35 803 327.85 807.65 313.17 807.65 297.19 807.65 281.76 802.26 269.31 792.22 256.86 782.18 248.31 768.25 244.96 752.64 241.61 737.03 243.66 720.86 250.91 706.55 258.16 692.24 269.87 681.09 284.55 674.4 286.22 657.3 294.4 641.32 307.04 629.8 319.86 618.28 336.4 611.77 353.69 611.77 370.98 611.77 387.51 618.09 400.34 629.61 413.16 641.13 421.34 656.93 423.01 674.03 437.69 680.35 449.77 691.69 457.02 705.81 464.45 720.12 466.68 736.29 463.34 752.09 459.99 767.7 451.45 781.83 439.18 791.86 426.91 802.27 411.3 807.66 395.32 807.66ZM354.24 787.02 355.91 788.32C367.06 797.05 381 801.89 395.31 801.89 409.62 801.89 424.49 796.69 436.01 787.39 447.53 777.91 455.34 764.9 458.13 750.22 460.92 735.72 458.69 720.67 451.63 707.48 444.57 694.29 433.05 684.44 419.29 678.86L417.62 678.12 417.43 676.45C416.13 660.47 408.88 645.41 396.99 634.64 385.1 623.68 369.67 617.73 353.5 617.73 337.33 617.73 321.91 623.86 310.2 634.83 298.49 645.79 291.24 660.66 289.94 676.83L289.75 678.5 288.08 679.24C279.72 682.77 272.1 687.97 265.96 694.67 259.83 701.36 255 709.35 252.21 717.9 249.24 726.63 248.31 735.74 249.24 744.85 250.17 753.96 253.14 762.69 257.6 770.5 262.25 778.31 268.38 785.18 275.81 790.39 283.24 795.59 291.79 799.31 300.71 800.98 309.63 802.65 318.92 802.47 327.66 800.24 336.58 798.01 344.76 794.11 352.01 788.53L354.24 787.04 354.24 787.04ZM67.67 737.03 34.96 737.03 20.09 692.8 20.09 680.72 81.79 680.72 81.42 692.99C81.42 692.99 67.67 737.03 67.67 737.03ZM39.05 731.26 63.4 731.26 75.67 691.86 75.86 686.28 25.67 686.28 25.67 691.86C25.67 691.86 39.05 731.26 39.05 731.26ZM54.1 751.15 48.34 751.15 48.34 970.45 54.1 970.45C54.1 970.45 54.1 751.15 54.1 751.15Z" fill="#1B1E3F"/><path d="M65.06 980.85 59.3 980.85 59.3 976.39C59.3 976.2 59.3 976.02 59.11 975.83 58.92 975.64 58.74 975.64 58.55 975.64L44.43 975.64C44.24 975.64 44.06 975.64 43.87 975.83 43.68 976.02 43.68 976.2 43.68 976.39L43.68 980.85 37.92 980.85 37.92 976.39C37.92 974.72 38.66 973.04 39.78 971.74 41.08 970.44 42.57 969.88 44.43 969.88L58.55 969.88C60.22 969.88 61.9 970.62 63.2 971.74 64.5 973.04 65.06 974.53 65.06 976.39L65.06 980.85ZM73.61 1017.84 67.85 1017.84 67.85 996.65C67.85 996.09 67.66 995.53 67.11 994.98 66.74 994.61 66.18 994.24 65.44 994.24L38.31 994.24C37.75 994.24 37.19 994.43 36.64 994.98 36.27 995.35 35.9 995.91 35.9 996.65L35.9 1017.65 30.14 1017.65 30.14 996.65C30.14 994.61 31.07 992.56 32.56 991.07 34.05 989.58 36.09 988.65 38.14 988.65L65.46 988.65C66.58 988.65 67.5 988.84 68.43 989.21 69.36 989.58 70.29 990.14 71.03 990.88 71.77 991.62 72.33 992.55 72.7 993.48 73.07 994.41 73.26 995.52 73.26 996.45 73.26 996.45 73.63 1017.82 73.63 1017.82Z" fill="#1B1E3F"/><path d="M95.73 1036.05 89.97 1036.05 89.97 1025.09C89.97 1024.16 89.6 1023.42 89.04 1022.86 88.48 1022.3 87.55 1021.93 86.81 1021.93L17.67 1021.93C16.74 1021.93 16 1022.3 15.44 1022.86 14.88 1023.42 14.51 1024.35 14.51 1025.09L14.51 1035.13 8.75 1035.13 8.75 1025.09C8.75 1022.67 9.68 1020.44 11.35 1018.77 13.02 1017.1 15.25 1016.17 17.67 1016.17L86.8 1016.17C89.22 1016.17 91.45 1017.1 93.12 1018.77 94.79 1020.44 95.72 1022.67 95.72 1025.09 95.72 1025.09 95.72 1036.05 95.72 1036.05ZM68.04 737.03 35.33 737.03 20.46 692.8 20.46 680.72 82.16 680.72 81.79 692.99 68.04 737.03ZM39.42 731.26 63.77 731.26 76.22 691.86 76.41 686.28 26.22 686.28 26.22 691.86C26.22 691.86 39.41 731.26 39.41 731.26ZM61.9 822.14 41.46 822.14C40.72 822.14 39.97 821.77 39.42 821.21 38.86 820.65 38.49 819.91 38.49 819.17 38.49 818.43 38.86 817.68 39.42 817.13 39.98 816.57 40.72 816.2 41.46 816.2L61.72 816.2C62.46 816.2 63.21 816.57 63.76 817.13 64.32 817.69 64.69 818.43 64.69 819.17 64.69 819.91 64.32 820.66 63.76 821.21 63.39 821.77 62.64 822.14 61.9 822.14ZM61.53 753.57 41.09 753.57C40.35 753.57 39.6 753.2 39.05 752.64 38.49 752.08 38.12 751.34 38.12 750.6 38.12 749.86 38.49 749.11 39.05 748.56 39.61 748 40.35 747.63 41.09 747.63L61.35 747.63C62.09 747.63 62.84 748 63.39 748.56 63.95 749.12 64.32 749.86 64.32 750.6 64.32 751.34 63.95 752.09 63.39 752.64 63.02 753.2 62.27 753.57 61.53 753.57Z" fill="#1B1E3F"/><path d="M73.61 737.03 29.01 737.03C28.27 737.03 27.52 736.66 26.97 736.1 26.42 735.54 26.04 734.8 26.04 734.06 26.04 733.32 26.41 732.57 26.97 732.02 27.53 731.46 28.27 731.09 29.01 731.09L73.8 731.09C74.54 731.09 75.29 731.46 75.84 732.02 76.39 732.58 76.77 733.32 76.77 734.06 76.77 734.8 76.4 735.55 75.84 736.1 75.1 736.84 74.35 737.03 73.61 737.03ZM299.23 910.23 293.47 910.23 293.47 1018.58 299.23 1018.58 299.23 910.23ZM282.87 902.05 277.11 902.05 277.11 1018.76 282.87 1018.76 282.87 902.05ZM266.7 891.28 260.94 891.28 260.94 1018.77 266.7 1018.77 266.7 891.28 266.7 891.28ZM250.35 902.05 244.59 902.05 244.59 1018.76 250.35 1018.76 250.35 902.05ZM234 910.23 228.24 910.23 228.24 1018.58 234 1018.58 234 910.23ZM175.46 910.23 169.7 910.23 169.7 1018.58 175.46 1018.58 175.46 910.23ZM159.1 902.05 153.34 902.05 153.34 1018.76 159.1 1018.76 159.1 902.05ZM142.93 891.28 137.17 891.28 137.17 1018.77 142.93 1018.77 142.93 891.28 142.93 891.28ZM126.58 902.05 120.82 902.05 120.82 1018.76 126.58 1018.76 126.58 902.05ZM110.22 910.23 104.46 910.23 104.46 1018.58 110.22 1018.58 110.22 910.23ZM340.11 1018.39 311.12 1018.39 311.12 882.91 340.11 882.91 340.11 1018.39 340.11 1018.39ZM316.88 1012.63 334.35 1012.63 334.35 888.67 316.88 888.67 316.88 1012.63Z" fill="#1B1E3F"/><path d="M352.56 1038.28 299.04 1038.28 306.1 1012.63 345.5 1012.63 352.56 1038.28ZM306.48 1032.52 344.95 1032.52 341.05 1018.4 310.39 1018.4 306.49 1032.52 306.49 1032.52ZM347.18 888.67 305.37 888.67 305.37 871.94 347.18 871.94 347.18 888.67ZM311.12 882.91 341.41 882.91 341.41 877.71 311.12 877.71 311.12 882.91 311.12 882.91ZM331.94 868.05 320.42 868.05 314.66 858.01 320.42 847.97 331.94 847.97 337.7 858.01 331.94 868.05ZM323.76 862.28 328.78 862.28 331.2 858.01 328.78 853.74 323.76 853.74 321.34 858.01 323.76 862.28ZM216.16 1018.39 187.17 1018.39 187.17 882.91 216.16 882.91 216.16 1018.39ZM192.92 1012.63 210.39 1012.63 210.39 888.67 192.92 888.67 192.92 1012.63Z" fill="#1B1E3F"/><path d="M228.61 1038.28 175.09 1038.28 182.15 1012.63 221.55 1012.63 228.61 1038.28ZM182.52 1032.52 220.99 1032.52 217.09 1018.4 186.43 1018.4 182.53 1032.52ZM223.22 888.67 181.41 888.67 181.41 871.94 223.22 871.94 223.22 888.67ZM187.16 882.91 217.45 882.91 217.45 877.71 187.16 877.71 187.16 882.91ZM208.16 868.05 196.45 868.05 190.69 858.01 196.45 847.97 207.97 847.97 213.73 858.01C213.73 858.01 208.15 868.05 208.15 868.05ZM199.8 862.28 204.82 862.28 207.24 858.01 204.82 853.74 199.8 853.74 197.38 858.01 199.8 862.28ZM190.14 976.76 89.78 976.76 89.78 982.52 190.14 982.52 190.14 976.76ZM422.44 910.23 416.68 910.23 416.68 1018.58 422.44 1018.58 422.44 910.23ZM406.27 902.05 400.51 902.05 400.51 1018.76 406.27 1018.76 406.27 902.05ZM389.92 891.28 384.16 891.28 384.16 1018.77 389.92 1018.77 389.92 891.28ZM373.56 902.05 367.8 902.05 367.8 1018.76 373.56 1018.76 373.56 902.05ZM357.21 910.23 351.45 910.23 351.45 1018.58 357.21 1018.58 357.21 910.23Z" fill="#1B1E3F"/><path d="M437.31 976.76 336.95 976.76 336.95 982.52 437.31 982.52 437.31 976.76ZM312.61 947.03 212.25 947.03 212.25 952.79 312.61 952.79 312.61 947.03Z" fill="#1B1E3F"/></g></g><g><path d="M1385.18 1015.42 1351.36 1015.42C1351.36 1015.42 1344.67 1034 1344.67 1034L1391.87 1034C1391.87 1034 1385.18 1015.42 1385.18 1015.42Z" fill="#EBEBEB"/><path d="M1378.49 885.7 1357.68 885.7C1357.68 885.7 1357.68 1015.42 1357.68 1015.42L1378.49 1015.42C1378.49 1015.42 1378.49 885.7 1378.49 885.7Z" fill="#EBEBEB"/><path d="M1385.18 1015.42 1351.36 1015.42C1351.36 1015.42 1344.67 1034 1344.67 1034L1391.87 1034C1391.87 1034 1385.18 1015.42 1385.18 1015.42Z" fill="#EBEBEB"/><path d="M1231.86 1015.42 1243.38 1015.42C1243.38 1015.42 1243.38 885.7 1243.38 885.7L1231.86 885.7C1231.86 885.7 1231.86 1015.42 1231.86 1015.42ZM1355.64 1015.42 1367.16 1015.42C1367.16 1015.42 1367.16 885.7 1367.16 885.7L1355.64 885.7C1355.64 885.7 1355.64 1015.42 1355.64 1015.42ZM1239.48 1034.93 1242.83 1015.6 1225.73 1015.6C1225.73 1015.6 1221.64 1034.93 1221.64 1034.93L1239.48 1034.93C1239.48 1034.93 1239.48 1034.93 1239.48 1034.93ZM1366.41 1015.61 1349.31 1015.61C1349.31 1015.61 1345.22 1034.94 1345.22 1034.94L1363.06 1034.94C1363.06 1034.94 1366.41 1015.61 1366.41 1015.61ZM1498.36 1019.32 1498.36 996.83C1498.36 994.6 1500.78 992.93 1503.75 992.93L1529.95 992.93C1532.92 992.93 1535.34 994.6 1535.34 996.83L1535.34 1019.32 1498.17 1019.32C1498.17 1019.32 1498.36 1019.32 1498.36 1019.32ZM1491.49 693.35 1544.08 693.35C1544.08 693.35 1544.08 683.5 1544.08 683.5L1491.49 683.5C1491.49 683.5 1491.49 693.35 1491.49 693.35Z" fill="#94B4F8"/><path d="M1487.58 692.98 1487.21 680.71 1548.91 680.71 1548.91 692.79C1548.91 692.79 1534.04 737.02 1534.04 737.02L1501.33 737.02C1501.33 737.02 1487.58 692.98 1487.58 692.98ZM1543.34 691.87 1543.34 686.29C1543.34 686.29 1493.16 686.29 1493.16 686.29L1493.35 691.87 1505.62 731.27 1529.97 731.27C1529.97 731.27 1543.35 691.87 1543.35 691.87ZM1514.9 970.45 1520.66 970.45C1520.66 970.45 1520.66 751.15 1520.66 751.15L1514.9 751.15C1514.9 751.15 1514.9 970.45 1514.9 970.45Z" fill="#1B1E3F"/><path d="M1503.94 976.39C1503.94 974.53 1504.5 973.04 1505.8 971.74 1507.1 970.62 1508.77 969.88 1510.45 969.88L1524.57 969.88C1526.43 969.88 1527.92 970.44 1529.22 971.74 1530.34 973.04 1531.08 974.71 1531.08 976.39L1531.08 980.85 1525.32 980.85 1525.32 976.39C1525.32 976.2 1525.32 976.02 1525.13 975.83 1524.94 975.64 1524.76 975.64 1524.57 975.64L1510.45 975.64C1510.26 975.64 1510.08 975.64 1509.89 975.83 1509.7 976.02 1509.7 976.2 1509.7 976.39L1509.7 980.85 1503.94 980.85 1503.94 976.39ZM1495.76 996.46C1495.76 995.53 1495.95 994.42 1496.32 993.49 1496.69 992.56 1497.25 991.63 1497.99 990.89 1498.73 990.15 1499.66 989.59 1500.59 989.22 1501.52 988.85 1502.45 988.66 1503.56 988.66L1530.88 988.66C1532.92 988.66 1534.97 989.59 1536.46 991.08 1537.95 992.57 1538.88 994.61 1538.88 996.66L1538.88 1017.66 1533.12 1017.66 1533.12 996.66C1533.12 995.92 1532.75 995.36 1532.38 994.99 1531.82 994.43 1531.26 994.25 1530.71 994.25L1503.58 994.25C1502.84 994.25 1502.28 994.62 1501.91 994.99 1501.35 995.55 1501.17 996.11 1501.17 996.66L1501.17 1017.85 1495.41 1017.85C1495.41 1017.85 1495.78 996.48 1495.78 996.48Z" fill="#1B1E3F"/><path d="M1473.27 1025.08C1473.27 1022.66 1474.2 1020.43 1475.87 1018.76 1477.54 1017.09 1479.77 1016.16 1482.19 1016.16L1551.32 1016.16C1553.74 1016.16 1555.97 1017.09 1557.64 1018.76 1559.31 1020.43 1560.24 1022.66 1560.24 1025.08L1560.24 1035.12 1554.48 1035.12 1554.48 1025.08C1554.48 1024.34 1554.11 1023.41 1553.55 1022.85 1552.99 1022.29 1552.25 1021.92 1551.32 1021.92L1482.19 1021.92C1481.45 1021.92 1480.52 1022.29 1479.96 1022.85 1479.4 1023.41 1479.03 1024.15 1479.03 1025.08L1479.03 1036.04 1473.27 1036.04C1473.27 1036.04 1473.27 1025.08 1473.27 1025.08ZM1487.21 692.98 1486.84 680.71 1548.54 680.71 1548.54 692.79C1548.54 692.79 1533.67 737.02 1533.67 737.02L1500.96 737.02C1500.96 737.02 1487.21 692.98 1487.21 692.98ZM1542.78 691.87 1542.78 686.29C1542.78 686.29 1492.6 686.29 1492.6 686.29L1492.79 691.87 1505.24 731.27 1529.59 731.27C1529.59 731.27 1542.78 691.87 1542.78 691.87ZM1505.24 821.21C1504.68 820.65 1504.31 819.91 1504.31 819.17 1504.31 818.43 1504.68 817.68 1505.24 817.13 1505.8 816.57 1506.54 816.2 1507.28 816.2L1527.54 816.2C1528.28 816.2 1529.03 816.57 1529.58 817.13 1530.14 817.69 1530.51 818.43 1530.51 819.17 1530.51 819.91 1530.14 820.66 1529.58 821.21 1529.02 821.77 1528.28 822.14 1527.54 822.14L1507.1 822.14C1506.36 822.14 1505.61 821.77 1505.24 821.21ZM1505.61 752.64C1505.05 752.08 1504.68 751.34 1504.68 750.6 1504.68 749.86 1505.05 749.11 1505.61 748.56 1506.17 748 1506.91 747.63 1507.65 747.63L1527.91 747.63C1528.65 747.63 1529.4 748 1529.95 748.56 1530.51 749.12 1530.88 749.86 1530.88 750.6 1530.88 751.34 1530.51 752.09 1529.95 752.64 1529.39 753.2 1528.65 753.57 1527.91 753.57L1507.47 753.57C1506.73 753.57 1505.98 753.2 1505.61 752.64Z" fill="#1B1E3F"/><path d="M1493.16 736.1C1492.6 735.54 1492.23 734.8 1492.23 734.06 1492.23 733.32 1492.6 732.57 1493.16 732.02 1493.72 731.47 1494.46 731.09 1495.2 731.09L1539.99 731.09C1540.73 731.09 1541.48 731.46 1542.03 732.02 1542.59 732.58 1542.96 733.32 1542.96 734.06 1542.96 734.8 1542.59 735.55 1542.03 736.1 1541.47 736.65 1540.73 737.03 1539.99 737.03L1495.39 737.03C1494.65 737.03 1493.9 736.84 1493.16 736.1ZM1269.78 1018.58 1275.54 1018.58C1275.54 1018.58 1275.54 910.23 1275.54 910.23L1269.78 910.23C1269.78 910.23 1269.78 1018.58 1269.78 1018.58ZM1286.13 1018.76 1291.89 1018.76C1291.89 1018.76 1291.89 902.05 1291.89 902.05L1286.13 902.05C1286.13 902.05 1286.13 1018.76 1286.13 1018.76ZM1302.3 891.28 1302.3 1018.77C1302.3 1018.77 1308.06 1018.77 1308.06 1018.77L1308.06 891.28C1308.06 891.28 1302.3 891.28 1302.3 891.28L1302.3 891.28ZM1318.65 1018.76 1324.41 1018.76C1324.41 1018.76 1324.41 902.05 1324.41 902.05L1318.65 902.05C1318.65 902.05 1318.65 1018.76 1318.65 1018.76ZM1335.01 1018.58 1340.77 1018.58C1340.77 1018.58 1340.77 910.23 1340.77 910.23L1335.01 910.23C1335.01 910.23 1335.01 1018.58 1335.01 1018.58ZM1393.55 1018.58 1399.31 1018.58C1399.31 1018.58 1399.31 910.23 1399.31 910.23L1393.55 910.23C1393.55 910.23 1393.55 1018.58 1393.55 1018.58ZM1409.9 1018.76 1415.66 1018.76C1415.66 1018.76 1415.66 902.05 1415.66 902.05L1409.9 902.05C1409.9 902.05 1409.9 1018.76 1409.9 1018.76ZM1426.07 891.28 1426.07 1018.77C1426.07 1018.77 1431.83 1018.77 1431.83 1018.77L1431.83 891.28C1431.83 891.28 1426.07 891.28 1426.07 891.28L1426.07 891.28ZM1442.42 1018.76 1448.18 1018.76C1448.18 1018.76 1448.18 902.05 1448.18 902.05L1442.42 902.05C1442.42 902.05 1442.42 1018.76 1442.42 1018.76ZM1458.78 1018.58 1464.54 1018.58C1464.54 1018.58 1464.54 910.23 1464.54 910.23L1458.78 910.23C1458.78 910.23 1458.78 1018.58 1458.78 1018.58ZM1228.89 1018.39 1228.89 882.91 1257.88 882.91 1257.88 1018.39 1228.89 1018.39ZM1252.12 888.67 1234.65 888.67C1234.65 888.67 1234.65 1012.63 1234.65 1012.63L1252.12 1012.63C1252.12 1012.63 1252.12 888.67 1252.12 888.67Z" fill="#1B1E3F"/><path d="M1223.5 1012.63 1262.9 1012.63C1262.9 1012.63 1269.96 1038.28 1269.96 1038.28L1216.44 1038.28C1216.44 1038.28 1223.5 1012.63 1223.5 1012.63ZM1262.53 1032.52 1258.63 1018.4 1227.97 1018.4C1227.97 1018.4 1224.07 1032.52 1224.07 1032.52L1262.54 1032.52C1262.54 1032.52 1262.54 1032.52 1262.54 1032.52ZM1221.83 871.95 1263.64 871.95 1263.64 888.68 1221.83 888.68 1221.83 871.95ZM1257.88 882.91 1257.88 877.71C1257.88 877.71 1227.59 877.71 1227.59 877.71L1227.59 882.91C1227.59 882.91 1257.88 882.91 1257.88 882.91L1257.88 882.91ZM1231.31 858.01 1237.07 847.97 1248.59 847.97C1248.59 847.97 1254.35 858.01 1254.35 858.01L1248.59 868.05 1237.07 868.05C1237.07 868.05 1231.31 858.01 1231.31 858.01ZM1247.66 858.01 1245.24 853.74 1240.22 853.74C1240.22 853.74 1237.8 858.01 1237.8 858.01L1240.22 862.28 1245.24 862.28C1245.24 862.28 1247.66 858.01 1247.66 858.01ZM1352.85 882.91 1381.84 882.91 1381.84 1018.39 1352.85 1018.39 1352.85 882.91ZM1376.08 888.67 1358.61 888.67C1358.61 888.67 1358.61 1012.63 1358.61 1012.63L1376.08 1012.63C1376.08 1012.63 1376.08 888.67 1376.08 888.67Z" fill="#1B1E3F"/><path d="M1347.46 1012.63 1386.86 1012.63C1386.86 1012.63 1393.92 1038.28 1393.92 1038.28L1340.4 1038.28C1340.4 1038.28 1347.46 1012.63 1347.46 1012.63ZM1382.58 1018.39 1351.92 1018.39C1351.92 1018.39 1348.02 1032.51 1348.02 1032.51L1386.49 1032.51C1386.49 1032.51 1382.59 1018.39 1382.59 1018.39ZM1345.79 871.95 1387.6 871.95 1387.6 888.68 1345.79 888.68 1345.79 871.95ZM1381.84 877.71 1351.55 877.71C1351.55 877.71 1351.55 882.91 1351.55 882.91L1381.84 882.91C1381.84 882.91 1381.84 877.71 1381.84 877.71ZM1355.26 858.01 1361.02 847.97 1372.54 847.97C1372.54 847.97 1378.3 858.01 1378.3 858.01L1372.54 868.05 1360.83 868.05C1360.83 868.05 1355.25 858.01 1355.25 858.01ZM1371.62 858.01 1369.2 853.74 1364.18 853.74C1364.18 853.74 1361.76 858.01 1361.76 858.01L1364.18 862.28 1369.2 862.28C1369.2 862.28 1371.62 858.01 1371.62 858.01ZM1378.87 982.53 1479.23 982.53C1479.23 982.53 1479.23 976.77 1479.23 976.77L1378.87 976.77C1378.87 976.77 1378.87 982.53 1378.87 982.53ZM1146.56 1018.58 1152.32 1018.58C1152.32 1018.58 1152.32 910.23 1152.32 910.23L1146.56 910.23C1146.56 910.23 1146.56 1018.58 1146.56 1018.58ZM1162.73 1018.76 1168.49 1018.76C1168.49 1018.76 1168.49 902.05 1168.49 902.05L1162.73 902.05C1162.73 902.05 1162.73 1018.76 1162.73 1018.76ZM1179.08 1018.76 1184.84 1018.76C1184.84 1018.76 1184.84 891.27 1184.84 891.27L1179.08 891.27C1179.08 891.27 1179.08 1018.76 1179.08 1018.76ZM1195.44 1018.76 1201.2 1018.76C1201.2 1018.76 1201.2 902.05 1201.2 902.05L1195.44 902.05C1195.44 902.05 1195.44 1018.76 1195.44 1018.76ZM1211.79 1018.58 1217.55 1018.58C1217.55 1018.58 1217.55 910.23 1217.55 910.23L1211.79 910.23C1211.79 910.23 1211.79 1018.58 1211.79 1018.58Z" fill="#1B1E3F"/><path d="M1131.69 982.53 1232.05 982.53C1232.05 982.53 1232.05 976.77 1232.05 976.77L1131.69 976.77C1131.69 976.77 1131.69 982.53 1131.69 982.53ZM1256.39 952.79 1356.75 952.79C1356.75 952.79 1356.75 947.03 1356.75 947.03L1256.39 947.03C1256.39 947.03 1256.39 952.79 1256.39 952.79Z" fill="#1B1E3F"/></g><rect x="0" y="1035.99" width="1574" height="4.21" fill="#3F2232"/></svg>